<svg width="142" height="48" viewBox="0 0 142 48" fill="none" xmlns="http://www.w3.org/2000/svg">
<rect x="0.583496" y="19.1621" width="7.99999" height="9.38549" fill="#039855"/>
<rect x="24.5835" y="28.5469" width="8" height="9.38549" transform="rotate(180 24.5835 28.5469)" fill="#027A48"/>
<path d="M8.5835 19.1621L16.5835 9.77734V19.1621L8.5835 28.5469V19.1621Z" fill="#A6F4C5"/>
<path d="M16.5835 28.5468L8.58351 37.9316L8.58351 28.5468L16.5835 19.1621L16.5835 28.5468Z" fill="#6CE9A6"/>
<path d="M0.583496 19.1622L16.5835 0.392578V9.77737L8.58348 19.1622H0.583496Z" fill="#32D583"/>
<path d="M24.5835 28.5468L8.58352 47.3164L8.58351 37.9316L16.5835 28.5468L24.5835 28.5468Z" fill="#12B76A"/>
<path d="M42.0068 33.9042C40.7468 33.9042 39.5257 33.6943 38.3434 33.2746C37.1768 32.8549 36.2512 32.2984 35.5668 31.6049L36.6168 28.8403C37.2857 29.4608 38.1023 29.9717 39.0668 30.3732C40.0468 30.7564 41.0268 30.948 42.0068 30.948C43.2201 30.948 44.1223 30.7199 44.7134 30.2637C45.3201 29.8075 45.6234 29.2053 45.6234 28.4571C45.6234 27.9097 45.4523 27.4626 45.1101 27.1159C44.7834 26.7509 44.3634 26.468 43.8501 26.2673C43.3368 26.0666 42.6368 25.8385 41.7501 25.583C40.5057 25.2363 39.4945 24.8896 38.7168 24.5429C37.9545 24.1961 37.2934 23.6578 36.7334 22.9279C36.189 22.1797 35.9168 21.1761 35.9168 19.9169C35.9168 18.8585 36.1579 17.9005 36.6401 17.0428C37.1379 16.1669 37.8768 15.4735 38.8568 14.9625C39.8523 14.4516 41.0657 14.1961 42.4968 14.1961C43.4923 14.1961 44.4723 14.3421 45.4368 14.6341C46.4012 14.926 47.2334 15.3457 47.9334 15.8932L46.9768 18.6578C46.2612 18.1651 45.5145 17.791 44.7368 17.5355C43.959 17.2801 43.2045 17.1523 42.4734 17.1523C41.2757 17.1523 40.3812 17.3895 39.7901 17.864C39.2145 18.3385 38.9268 18.968 38.9268 19.7527C38.9268 20.3001 39.0901 20.7472 39.4168 21.0939C39.759 21.4407 40.1868 21.7144 40.7001 21.9151C41.2134 22.1158 41.9134 22.3439 42.8001 22.5994C44.0134 22.9279 45.009 23.2746 45.7868 23.6396C46.5645 23.9863 47.2257 24.5246 47.7701 25.2545C48.3301 25.9845 48.6101 26.9699 48.6101 28.2107C48.6101 29.2691 48.3612 30.2272 47.8634 31.0848C47.3812 31.9425 46.6423 32.6268 45.6468 33.1378C44.6512 33.6487 43.4379 33.9042 42.0068 33.9042Z" fill="#101828"/>
<path d="M51.3379 19.0136H54.2546V33.6305H51.3379V19.0136ZM52.8079 16.6049C52.279 16.6049 51.8357 16.4133 51.4779 16.0301C51.1201 15.6286 50.9412 15.1359 50.9412 14.5519C50.9412 13.968 51.1201 13.4844 51.4779 13.1012C51.8357 12.6998 52.279 12.499 52.8079 12.499C53.3368 12.499 53.7801 12.6906 54.1379 13.0738C54.4957 13.4388 54.6746 13.9041 54.6746 14.4698C54.6746 15.072 54.4957 15.583 54.1379 16.0027C53.7957 16.4041 53.3524 16.6049 52.8079 16.6049Z" fill="#101828"/>
<path d="M61.9327 33.8221C60.9216 33.8221 59.9338 33.667 58.9694 33.3568C58.0049 33.0465 57.2349 32.6542 56.6594 32.1797L57.7794 29.5794C58.3394 30.0173 59.0083 30.3732 59.786 30.6469C60.5794 30.9024 61.3571 31.0301 62.1194 31.0301C63.8616 31.0301 64.7327 30.4918 64.7327 29.4151C64.7327 28.9042 64.5071 28.5483 64.056 28.3476C63.6205 28.1469 62.9127 27.9553 61.9327 27.7728C60.906 27.5903 60.066 27.3805 59.4127 27.1432C58.7749 26.906 58.2149 26.4954 57.7327 25.9115C57.266 25.3093 57.0327 24.479 57.0327 23.4206C57.0327 22.0337 57.5227 20.9297 58.5027 20.1085C59.4983 19.2691 60.836 18.8494 62.516 18.8494C63.3716 18.8494 64.2271 18.968 65.0827 19.2052C65.9383 19.4242 66.6383 19.7253 67.1827 20.1085L66.0627 22.7089C65.0049 21.979 63.8149 21.614 62.4927 21.614C61.6371 21.614 60.9838 21.7691 60.5327 22.0793C60.0971 22.3713 59.8794 22.7637 59.8794 23.2564C59.8794 23.8038 60.1127 24.1961 60.5794 24.4334C61.0616 24.6523 61.8005 24.8622 62.796 25.0629C63.7916 25.2454 64.6083 25.4553 65.246 25.6925C65.8838 25.9297 66.4283 26.3312 66.8794 26.8969C67.346 27.4626 67.5794 28.2655 67.5794 29.3056C67.5794 30.6743 67.0738 31.7692 66.0627 32.5903C65.0516 33.4115 63.6749 33.8221 61.9327 33.8221Z" fill="#101828"/>
<path d="M81.53 19.0136L75.6966 34.8075C75.1522 36.3951 74.4911 37.5082 73.7133 38.1469C72.9355 38.8038 71.9944 39.1323 70.89 39.1323C70.2677 39.1323 69.6533 39.0137 69.0466 38.7765C68.44 38.5392 67.9422 38.2108 67.5533 37.7911L68.72 35.2728C69 35.583 69.3266 35.8294 69.7 36.0119C70.0888 36.1944 70.4777 36.2856 70.8666 36.2856C71.38 36.2856 71.8 36.1305 72.1266 35.8203C72.4688 35.51 72.78 34.99 73.06 34.26L73.27 33.6852L67.8333 19.0136H70.8666L74.7866 29.8257L78.73 19.0136H81.53Z" fill="#101828"/>
<path d="M90.2595 18.8494C91.4729 18.8494 92.554 19.1596 93.5029 19.7801C94.4673 20.4005 95.2218 21.2764 95.7662 22.4078C96.3106 23.5392 96.5829 24.844 96.5829 26.3221C96.5829 27.8002 96.3106 29.114 95.7662 30.2637C95.2218 31.3951 94.4673 32.271 93.5029 32.8914C92.554 33.5119 91.4729 33.8221 90.2595 33.8221C88.5795 33.8221 87.2495 33.1651 86.2695 31.8513V38.9407H83.3529V19.0136H86.1295V20.9297C86.6118 20.2363 87.2029 19.7162 87.9029 19.3695C88.6184 19.0228 89.404 18.8494 90.2595 18.8494ZM89.9329 30.8932C91.0062 30.8932 91.8851 30.4735 92.5695 29.6341C93.2695 28.7947 93.6195 27.6907 93.6195 26.3221C93.6195 24.9534 93.2695 23.8494 92.5695 23.01C91.8851 22.1706 91.0062 21.7509 89.9329 21.7509C89.2329 21.7509 88.6029 21.9425 88.0429 22.3257C87.4829 22.6907 87.0395 23.2199 86.7129 23.9133C86.3862 24.6067 86.2229 25.4096 86.2229 26.3221C86.2229 27.2345 86.3862 28.0374 86.7129 28.7308C87.0395 29.4243 87.4829 29.9626 88.0429 30.3458C88.6029 30.7108 89.2329 30.8932 89.9329 30.8932Z" fill="#101828"/>
<path d="M106.419 18.8494C107.99 18.8494 109.25 19.3877 110.199 20.4644C111.148 21.541 111.622 23.1377 111.622 25.2545V33.6305H108.706V25.6925C108.706 24.4151 108.449 23.4571 107.936 22.8184C107.422 22.1615 106.691 21.833 105.742 21.833C104.669 21.833 103.821 22.2162 103.199 22.9826C102.577 23.7308 102.266 24.8166 102.266 26.2399V33.6305H99.349V13.3202H102.266V20.7107C102.748 20.1085 103.339 19.6523 104.039 19.3421C104.755 19.0136 105.548 18.8494 106.419 18.8494Z" fill="#101828"/>
<path d="M127.386 19.0136V33.6305H124.609V31.7692C124.142 32.4261 123.559 32.937 122.859 33.302C122.159 33.6487 121.404 33.8221 120.596 33.8221C118.931 33.8221 117.617 33.2838 116.652 32.2071C115.703 31.1122 115.229 29.4972 115.229 27.3622V19.0136H118.146V26.8969C118.146 28.2107 118.394 29.1962 118.892 29.8531C119.406 30.4918 120.129 30.8111 121.062 30.8111C122.104 30.8111 122.929 30.437 123.536 29.6889C124.158 28.9224 124.469 27.8275 124.469 26.4042V19.0136H127.386Z" fill="#101828"/>
<path d="M135.054 33.8221C134.043 33.8221 133.056 33.667 132.091 33.3568C131.127 33.0465 130.357 32.6542 129.781 32.1797L130.901 29.5794C131.461 30.0173 132.13 30.3732 132.908 30.6469C133.701 30.9024 134.479 31.0301 135.241 31.0301C136.983 31.0301 137.854 30.4918 137.854 29.4151C137.854 28.9042 137.629 28.5483 137.178 28.3476C136.742 28.1469 136.034 27.9553 135.054 27.7728C134.028 27.5903 133.188 27.3805 132.534 27.1432C131.897 26.906 131.337 26.4954 130.854 25.9115C130.388 25.3093 130.154 24.479 130.154 23.4206C130.154 22.0337 130.644 20.9297 131.624 20.1085C132.62 19.2691 133.958 18.8494 135.638 18.8494C136.493 18.8494 137.349 18.968 138.204 19.2052C139.06 19.4242 139.76 19.7253 140.304 20.1085L139.184 22.7089C138.127 21.979 136.937 21.614 135.614 21.614C134.759 21.614 134.106 21.7691 133.654 22.0793C133.219 22.3713 133.001 22.7637 133.001 23.2564C133.001 23.8038 133.234 24.1961 133.701 24.4334C134.183 24.6523 134.922 24.8622 135.918 25.0629C136.913 25.2454 137.73 25.4553 138.368 25.6925C139.006 25.9297 139.55 26.3312 140.001 26.8969C140.468 27.4626 140.701 28.2655 140.701 29.3056C140.701 30.6743 140.196 31.7692 139.184 32.5903C138.173 33.4115 136.797 33.8221 135.054 33.8221Z" fill="#101828"/>
</svg>
