<svg width="49" height="49" viewBox="0 0 49 49" fill="none" xmlns="http://www.w3.org/2000/svg">
<path d="M18.25 6V10.0833M30.5 6V10.0833M18.25 38.6667V42.75M30.5 38.6667V42.75M10.0833 18.25H6M10.0833 30.5H6M42.75 18.25H38.6667M42.75 30.5H38.6667M14.1667 38.6667H34.5833C36.8385 38.6667 38.6667 36.8385 38.6667 34.5833V14.1667C38.6667 11.9115 36.8385 10.0833 34.5833 10.0833H14.1667C11.9115 10.0833 10.0833 11.9115 10.0833 14.1667V34.5833C10.0833 36.8385 11.9115 38.6667 14.1667 38.6667ZM18.25 18.25H30.5V30.5H18.25V18.25Z" stroke="#A1A1AA" stroke-width="2" stroke-linecap="round" stroke-linejoin="round"/>
</svg>
