<svg width="49" height="49" viewBox="0 0 49 49" fill="none" xmlns="http://www.w3.org/2000/svg">
<path d="M9.25 36.1826H40.75C41.216 36.1826 41.6618 36.3656 41.9895 36.6895C42.3171 37.0132 42.5 37.451 42.5 37.9061C42.5 38.3613 42.3171 38.7991 41.9895 39.1228C41.6618 39.4467 41.216 39.6297 40.75 39.6297H9.25C8.78397 39.6297 8.33821 39.4467 8.01047 39.1228C7.68292 38.7991 7.5 38.3613 7.5 37.9061C7.5 37.451 7.68292 37.0132 8.01047 36.6895C8.33821 36.3656 8.78397 36.1826 9.25 36.1826Z" fill="#A1A1AA" stroke="white"/>
<path d="M10.2605 25.5718C10.5882 25.2479 11.034 25.0649 11.5 25.0649C11.966 25.0649 12.4118 25.2479 12.7395 25.5718C13.0671 25.8955 13.25 26.3333 13.25 26.7885V29.012C13.25 29.4672 13.0671 29.9049 12.7395 30.2286C12.4118 30.5525 11.966 30.7355 11.5 30.7355C11.034 30.7355 10.5882 30.5525 10.2605 30.2286C9.93292 29.9049 9.75 29.4672 9.75 29.012V26.7885C9.75 26.3333 9.93292 25.8955 10.2605 25.5718Z" fill="#A1A1AA" stroke="white"/>
<path d="M18.75 29.0121V17.8944C18.75 17.4392 18.9329 17.0015 19.2605 16.6778C19.5882 16.3539 20.034 16.1709 20.5 16.1709C20.966 16.1709 21.4118 16.3539 21.7395 16.6778C22.0671 17.0015 22.25 17.4392 22.25 17.8944V29.0121C22.25 29.4673 22.0671 29.905 21.7395 30.2287C21.4118 30.5526 20.966 30.7356 20.5 30.7356C20.034 30.7356 19.5882 30.5526 19.2605 30.2287C18.9329 29.905 18.75 29.4673 18.75 29.0121Z" fill="#A1A1AA" stroke="white"/>
<path d="M30.7395 30.2284C30.4118 30.5523 29.966 30.7353 29.5 30.7353C29.034 30.7353 28.5882 30.5523 28.2605 30.2284C27.9329 29.9047 27.75 29.467 27.75 29.0118V22.3412C27.75 21.886 27.9329 21.4483 28.2605 21.1246C28.5882 20.8007 29.034 20.6177 29.5 20.6177C29.966 20.6177 30.4118 20.8007 30.7395 21.1246C31.0671 21.4483 31.25 21.886 31.25 22.3412V29.0118C31.25 29.467 31.0671 29.9047 30.7395 30.2284Z" fill="#A1A1AA" stroke="white"/>
<path d="M36.75 29.0118V11.2235C36.75 10.7683 36.9329 10.3306 37.2605 10.0069C37.5882 9.68301 38.034 9.5 38.5 9.5C38.966 9.5 39.4118 9.68301 39.7395 10.0069C40.0671 10.3306 40.25 10.7683 40.25 11.2235V29.0118C40.25 29.467 40.0671 29.9047 39.7395 30.2284C39.4118 30.5523 38.966 30.7353 38.5 30.7353C38.034 30.7353 37.5882 30.5523 37.2605 30.2284C36.9329 29.9047 36.75 29.467 36.75 29.0118Z" fill="#A1A1AA" stroke="white"/>
</svg>
