<svg width="49" height="49" viewBox="0 0 49 49" fill="none" xmlns="http://www.w3.org/2000/svg">
<path d="M43.5664 38.1623L43.566 38.1626L43.5747 38.1727C43.9483 38.6087 43.8448 39.334 43.3542 39.6679L43.354 39.6676L43.3451 39.6744C43.1241 39.8437 42.9083 39.8985 42.6872 39.8985C42.3651 39.8985 42.0322 39.733 41.8067 39.4463C41.8063 39.4457 41.8058 39.4452 41.8053 39.4446L26.543 19.0219L26.3735 18.7951L26.2164 19.0307L20.9548 26.9227L20.8737 27.0442L20.9648 27.1583L30.3838 38.9631L30.3837 38.9632L30.3882 38.9686C30.7692 39.4131 30.7166 40.1451 30.2208 40.5387L30.2206 40.5385L30.212 40.5462C29.7804 40.9317 29.0705 40.8805 28.6855 40.3752L28.6855 40.3752L28.6825 40.3713L15.8208 24.3221L15.6293 24.0831L15.4874 24.3545L7.23914 40.1359C7.01151 40.5407 6.62145 40.7606 6.24577 40.7606C6.04713 40.7606 5.91176 40.7566 5.77369 40.6626L5.76693 40.6581L5.75983 40.654C5.26996 40.3762 5.04221 39.6974 5.32017 39.1272L14.4132 21.5547L14.4133 21.5547L14.4152 21.5508C14.5782 21.2179 14.9077 20.989 15.3038 20.9312L15.3038 20.9312L15.3085 20.9304C15.6159 20.8781 16.0007 21.0387 16.2218 21.3209L16.2218 21.3209L16.2234 21.3229L19.2115 25.0368L19.3819 25.2486L19.5334 25.0228L25.1847 16.6003L25.2187 16.5497V16.4889V13.7698V9.32638C25.2187 8.7034 25.7176 8.2 26.3178 8.2H33.788C34.3882 8.2 34.8872 8.7034 34.8872 9.32638V13.7698C34.8872 14.3928 34.3882 14.8962 33.788 14.8962H27.617H27.417V15.0962V16.4889V16.5553L27.4568 16.6086L43.5664 38.1623ZM27.617 10.3864H27.417V10.5864V12.3771V12.5771H27.617H32.4888H32.6888V12.3771V10.5864V10.3864H32.4888H27.617Z" fill="#A1A1AA" stroke="white" stroke-width="0.4"/>
</svg>
