<svg width="15" height="162" viewBox="0 0 15 162" fill="none" xmlns="http://www.w3.org/2000/svg">
<line y1="-0.5" x2="20.0331" y2="-0.5" transform="matrix(-0.748762 -0.662839 -0.448684 0.89369 15 13.2788)" stroke="#52525B"/>
<line y1="-0.5" x2="20.0331" y2="-0.5" transform="matrix(-0.748762 -0.662839 -0.448684 0.89369 15 59.7539)" stroke="#52525B"/>
<line y1="-0.5" x2="20.0331" y2="-0.5" transform="matrix(-0.748762 -0.662839 -0.448684 0.89369 15 106.229)" stroke="#52525B"/>
<line y1="-0.5" x2="20.0331" y2="-0.5" transform="matrix(-0.748762 -0.662839 -0.448684 0.89369 15 152.705)" stroke="#52525B"/>
<line y1="-0.5" x2="20.0331" y2="-0.5" transform="matrix(-0.748762 -0.662839 -0.448684 0.89369 15 22.5742)" stroke="#52525B"/>
<line y1="-0.5" x2="20.0331" y2="-0.5" transform="matrix(-0.748762 -0.662839 -0.448684 0.89369 15 69.0493)" stroke="#52525B"/>
<line y1="-0.5" x2="20.0331" y2="-0.5" transform="matrix(-0.748762 -0.662839 -0.448684 0.89369 15 115.525)" stroke="#52525B"/>
<line y1="-0.5" x2="20.0331" y2="-0.5" transform="matrix(-0.748762 -0.662839 -0.448684 0.89369 15 162)" stroke="#52525B"/>
<line y1="-0.5" x2="20.0331" y2="-0.5" transform="matrix(-0.748762 -0.662839 -0.448684 0.89369 15 31.8696)" stroke="#52525B"/>
<line y1="-0.5" x2="20.0331" y2="-0.5" transform="matrix(-0.748762 -0.662839 -0.448684 0.89369 15 78.3447)" stroke="#52525B"/>
<line y1="-0.5" x2="20.0331" y2="-0.5" transform="matrix(-0.748762 -0.662839 -0.448684 0.89369 15 124.82)" stroke="#52525B"/>
<line y1="-0.5" x2="20.0331" y2="-0.5" transform="matrix(-0.748762 -0.662839 -0.448684 0.89369 15 41.1636)" stroke="#52525B"/>
<line y1="-0.5" x2="20.0331" y2="-0.5" transform="matrix(-0.748762 -0.662839 -0.448684 0.89369 15 87.6387)" stroke="#52525B"/>
<line y1="-0.5" x2="20.0331" y2="-0.5" transform="matrix(-0.748762 -0.662839 -0.448684 0.89369 15 134.115)" stroke="#52525B"/>
<line y1="-0.5" x2="20.0331" y2="-0.5" transform="matrix(-0.748762 -0.662839 -0.448684 0.89369 15 50.459)" stroke="#52525B"/>
<line y1="-0.5" x2="20.0331" y2="-0.5" transform="matrix(-0.748762 -0.662839 -0.448684 0.89369 15 96.9341)" stroke="#52525B"/>
<line y1="-0.5" x2="20.0331" y2="-0.5" transform="matrix(-0.748762 -0.662839 -0.448684 0.89369 15 143.41)" stroke="#52525B"/>
</svg>
