<svg width="171" height="20" viewBox="0 0 171 20" fill="none" xmlns="http://www.w3.org/2000/svg">
<path d="M37.3602 19.275V5.9915C37.3602 5.3765 37.7859 4.84343 38.3857 4.70744L39.8675 4.37146C40.6913 4.18469 41.4753 4.81087 41.4753 5.65551V6.67087H41.6347C41.9137 5.72324 42.382 5.00755 43.0397 4.5238C43.6973 4.03342 44.4545 3.78823 45.3115 3.78823C45.524 3.78823 45.7532 3.80148 45.999 3.82799C46.2448 3.8545 46.4606 3.89094 46.6466 3.93733V7.6947C46.4474 7.63506 46.1717 7.58205 45.8196 7.53566C45.4676 7.48927 45.1454 7.46608 44.8531 7.46608C44.2287 7.46608 43.6707 7.60193 43.1792 7.87362C42.6942 8.13869 42.309 8.50979 42.0233 8.98692C41.7443 9.46404 41.6048 10.0141 41.6048 10.637V19.275H37.3602Z" fill="#363636"/>
<path d="M55.5712 19.5732C53.9969 19.5732 52.6418 19.2551 51.5059 18.6189C50.3767 17.9761 49.5065 17.0682 48.8953 15.8953C48.2842 14.7157 47.9787 13.3208 47.9787 11.7105C47.9787 10.14 48.2842 8.76161 48.8953 7.57542C49.5065 6.38923 50.3667 5.4648 51.476 4.80212C52.592 4.13945 53.9006 3.80811 55.4018 3.80811C56.4115 3.80811 57.3515 3.97047 58.2217 4.29518C59.0985 4.61326 59.8624 5.0937 60.5134 5.7365C61.171 6.37929 61.6825 7.18775 62.0478 8.16189C62.4132 9.12939 62.5959 10.2626 62.5959 11.5614V12.7244H49.6725V10.1002H58.6003C58.6003 9.49055 58.4674 8.95047 58.2017 8.47997C57.936 8.00947 57.5674 7.64169 57.0957 7.37662C56.6307 7.10492 56.0894 6.96907 55.4716 6.96907C54.8273 6.96907 54.256 7.11817 53.7578 7.41638C53.2662 7.70795 52.8809 8.10224 52.602 8.59925C52.323 9.08963 52.1801 9.63634 52.1735 10.2394V12.7343C52.1735 13.4898 52.313 14.1425 52.592 14.6925C52.8776 15.2426 53.2795 15.6667 53.7976 15.9649C54.3158 16.2631 54.9302 16.4122 55.641 16.4122C56.1126 16.4122 56.5444 16.3459 56.9363 16.2134C57.3282 16.0809 57.6637 15.8821 57.9427 15.617C58.2217 15.3519 58.4342 15.0272 58.5804 14.6429L62.5062 14.9013C62.3069 15.8423 61.8984 16.664 61.2806 17.3664C60.6695 18.0623 59.879 18.6056 58.9092 18.9966C57.946 19.381 56.8333 19.5732 55.5712 19.5732Z" fill="#363636"/>
<path d="M64.9779 19.275V2.66895C64.9779 2.10065 65.3426 1.59648 65.8823 1.41852L67.4937 0.887213C68.3454 0.606359 69.2226 1.24075 69.2226 2.13764V6.57147H69.3521C69.5381 6.16061 69.8072 5.74312 70.1592 5.31901C70.5179 4.88827 70.9829 4.53043 71.5542 4.24548C72.1321 3.9539 72.8495 3.80811 73.7064 3.80811C74.8224 3.80811 75.852 4.09969 76.7953 4.68284C77.7385 5.25937 78.4925 6.13079 79.0571 7.2971C79.6217 8.45678 79.904 9.91135 79.904 11.6608C79.904 13.3639 79.6284 14.8019 79.077 15.9748C78.5323 17.1411 77.7883 18.0258 76.8451 18.6288C75.9085 19.2252 74.8589 19.5235 73.6964 19.5235C72.8728 19.5235 72.172 19.3876 71.594 19.1159C71.0228 18.8442 70.5545 18.5029 70.1891 18.0921C69.8238 17.6746 69.5448 17.2538 69.3521 16.8297H69.1628V19.275H64.9779ZM69.1329 11.6409C69.1329 12.5488 69.2591 13.3407 69.5116 14.0166C69.764 14.6926 70.1293 15.2194 70.6076 15.5971C71.0859 15.9682 71.6671 16.1537 72.3513 16.1537C73.0421 16.1537 73.6267 15.9649 74.105 15.5872C74.5832 15.2028 74.9453 14.6727 75.191 13.9967C75.4435 13.3142 75.5697 12.5289 75.5697 11.6409C75.5697 10.7596 75.4468 9.98424 75.201 9.31494C74.9552 8.64564 74.5932 8.12213 74.1149 7.7444C73.6367 7.36668 73.0488 7.17781 72.3513 7.17781C71.6605 7.17781 71.0759 7.36005 70.5976 7.72452C70.126 8.08899 69.764 8.60588 69.5116 9.27518C69.2591 9.94448 69.1329 10.7331 69.1329 11.6409Z" fill="#363636"/>
<path d="M89.1837 19.5732C87.6359 19.5732 86.2974 19.2451 85.1682 18.5891C84.0456 17.9264 83.1787 17.0053 82.5676 15.8257C81.9565 14.6395 81.6509 13.2645 81.6509 11.7006C81.6509 10.1234 81.9565 8.74504 82.5676 7.56548C83.1787 6.37929 84.0456 5.45817 85.1682 4.80212C86.2974 4.13945 87.6359 3.80811 89.1837 3.80811C90.7314 3.80811 92.0666 4.13945 93.1892 4.80212C94.3185 5.45817 95.1887 6.37929 95.7998 7.56548C96.4109 8.74504 96.7165 10.1234 96.7165 11.7006C96.7165 13.2645 96.4109 14.6395 95.7998 15.8257C95.1887 17.0053 94.3185 17.9264 93.1892 18.5891C92.0666 19.2451 90.7314 19.5732 89.1837 19.5732ZM89.2036 16.2929C89.9077 16.2929 90.4956 16.0941 90.9672 15.6965C91.4389 15.2923 91.7943 14.7423 92.0334 14.0464C92.2792 13.3506 92.4021 12.5587 92.4021 11.6708C92.4021 10.7828 92.2792 9.99087 92.0334 9.29506C91.7943 8.59925 91.4389 8.04923 90.9672 7.645C90.4956 7.24077 89.9077 7.03865 89.2036 7.03865C88.4928 7.03865 87.895 7.24077 87.4101 7.645C86.9318 8.04923 86.5698 8.59925 86.324 9.29506C86.0849 9.99087 85.9653 10.7828 85.9653 11.6708C85.9653 12.5587 86.0849 13.3506 86.324 14.0464C86.5698 14.7423 86.9318 15.2923 87.4101 15.6965C87.895 16.0941 88.4928 16.2929 89.2036 16.2929Z" fill="#363636"/>
<path d="M105.924 19.5732C104.376 19.5732 103.038 19.2451 101.908 18.5891C100.786 17.9264 99.9189 17.0053 99.3078 15.8257C98.6967 14.6395 98.3911 13.2645 98.3911 11.7006C98.3911 10.1234 98.6967 8.74504 99.3078 7.56548C99.9189 6.37929 100.786 5.45817 101.908 4.80212C103.038 4.13945 104.376 3.80811 105.924 3.80811C107.472 3.80811 108.807 4.13945 109.929 4.80212C111.059 5.45817 111.929 6.37929 112.54 7.56548C113.151 8.74504 113.457 10.1234 113.457 11.7006C113.457 13.2645 113.151 14.6395 112.54 15.8257C111.929 17.0053 111.059 17.9264 109.929 18.5891C108.807 19.2451 107.472 19.5732 105.924 19.5732ZM105.944 16.2929C106.648 16.2929 107.236 16.0941 107.707 15.6965C108.179 15.2923 108.534 14.7423 108.774 14.0464C109.019 13.3506 109.142 12.5587 109.142 11.6708C109.142 10.7828 109.019 9.99087 108.774 9.29506C108.534 8.59925 108.179 8.04923 107.707 7.645C107.236 7.24077 106.648 7.03865 105.944 7.03865C105.233 7.03865 104.635 7.24077 104.15 7.645C103.672 8.04923 103.31 8.59925 103.064 9.29506C102.825 9.99087 102.706 10.7828 102.706 11.6708C102.706 12.5587 102.825 13.3506 103.064 14.0464C103.31 14.7423 103.672 15.2923 104.15 15.6965C104.635 16.0941 105.233 16.2929 105.944 16.2929Z" fill="#363636"/>
<path d="M128.483 8.36069L124.597 8.59925C124.531 8.26791 124.388 7.96971 124.169 7.70464C123.949 7.43294 123.661 7.21757 123.302 7.05853C122.95 6.89286 122.528 6.81003 122.036 6.81003C121.379 6.81003 120.824 6.94919 120.372 7.22751C119.921 7.49921 119.695 7.86368 119.695 8.32093C119.695 8.6854 119.841 8.99354 120.133 9.24536C120.426 9.49718 120.927 9.69929 121.638 9.85171L124.408 10.4084C125.896 10.7132 127.005 11.2036 127.736 11.8795C128.466 12.5554 128.832 13.4434 128.832 14.5434C128.832 15.5441 128.536 16.4221 127.945 17.1776C127.36 17.933 126.557 18.5228 125.534 18.9469C124.517 19.3644 123.345 19.5732 122.016 19.5732C119.99 19.5732 118.376 19.1524 117.174 18.3108C115.978 17.4625 115.277 16.3095 115.072 14.8516L119.246 14.6329C119.373 15.2492 119.678 15.7197 120.163 16.0444C120.648 16.3625 121.269 16.5215 122.026 16.5215C122.77 16.5215 123.368 16.3791 123.82 16.0941C124.278 15.8025 124.511 15.4281 124.517 14.9709C124.511 14.5865 124.348 14.2718 124.029 14.0266C123.71 13.7747 123.219 13.5826 122.554 13.45L119.904 12.9232C118.409 12.625 117.297 12.1081 116.566 11.3725C115.842 10.637 115.48 9.69929 115.48 8.55949C115.48 7.57873 115.746 6.73382 116.277 6.02476C116.815 5.3157 117.569 4.76899 118.539 4.38464C119.515 4.00029 120.658 3.80811 121.967 3.80811C123.9 3.80811 125.421 4.21565 126.53 5.03074C127.646 5.84584 128.297 6.95582 128.483 8.36069Z" fill="#363636"/>
<path d="M139.645 4.00691V7.18775H130.429V4.00691H139.645ZM132.521 1.98645C132.521 1.14537 133.299 0.519929 134.12 0.700502L135.732 1.05471C136.336 1.18744 136.766 1.72241 136.766 2.34066V14.5832C136.766 14.9742 136.825 15.279 136.945 15.4977C137.065 15.7098 137.231 15.8589 137.443 15.945C137.662 16.0312 137.915 16.0742 138.2 16.0742C138.4 16.0742 138.599 16.0577 138.798 16.0245C138.998 15.9848 139.15 15.9549 139.257 15.9351L139.924 19.0861C139.712 19.1524 139.413 19.2286 139.028 19.3147C138.642 19.4075 138.174 19.4638 137.623 19.4837C136.6 19.5235 135.703 19.3876 134.932 19.0761C134.168 18.7647 133.574 18.2809 133.149 17.6249C132.724 16.9688 132.514 16.1405 132.521 15.1399V1.98645Z" fill="#363636"/>
<path d="M144.891 19.5334C144.234 19.5334 143.669 19.3015 143.197 18.8376C142.732 18.3671 142.5 17.8038 142.5 17.1478C142.5 16.4983 142.732 15.9417 143.197 15.4778C143.669 15.0139 144.234 14.782 144.891 14.782C145.529 14.782 146.087 15.0139 146.565 15.4778C147.044 15.9417 147.283 16.4983 147.283 17.1478C147.283 17.5851 147.17 17.986 146.944 18.3505C146.725 18.7084 146.436 18.9966 146.077 19.2153C145.718 19.4274 145.323 19.5334 144.891 19.5334Z" fill="#363636"/>
<path d="M154.664 19.5632C153.688 19.5632 152.818 19.3942 152.054 19.0563C151.29 18.7117 150.685 18.2047 150.24 17.5354C149.802 16.8595 149.583 16.0179 149.583 15.0106C149.583 14.1624 149.739 13.45 150.051 12.8735C150.363 12.297 150.788 11.8331 151.326 11.4819C151.864 11.1307 152.475 10.8656 153.16 10.6867C153.85 10.5078 154.575 10.3818 155.332 10.309C156.222 10.2162 156.939 10.13 157.484 10.0505C158.029 9.96436 158.424 9.83845 158.67 9.67279C158.916 9.50712 159.038 9.26193 159.038 8.93722V8.87758C159.038 8.24803 158.839 7.76097 158.441 7.41638C158.049 7.07179 157.491 6.89949 156.767 6.89949C156.003 6.89949 155.395 7.06847 154.943 7.40644C154.492 7.73777 154.193 8.15526 154.046 8.65889L150.121 8.34081C150.32 7.41306 150.712 6.61123 151.296 5.9353C151.881 5.25274 152.635 4.72923 153.558 4.36476C154.488 3.99366 155.564 3.80811 156.787 3.80811C157.637 3.80811 158.451 3.90751 159.228 4.10631C160.012 4.30512 160.706 4.61326 161.31 5.03074C161.921 5.44823 162.403 5.985 162.755 6.64105C163.107 7.29047 163.283 8.06911 163.283 8.97698V19.275H159.258V17.1577H159.138C158.892 17.6348 158.563 18.0556 158.152 18.4201C157.74 18.7779 157.245 19.0596 156.667 19.265C156.089 19.4638 155.421 19.5632 154.664 19.5632ZM155.88 16.6408C156.504 16.6408 157.056 16.5182 157.534 16.273C158.012 16.0212 158.387 15.6833 158.66 15.2591C158.932 14.835 159.068 14.3546 159.068 13.8178V12.1976C158.935 12.2837 158.753 12.3632 158.52 12.4361C158.294 12.5024 158.039 12.5654 157.753 12.625C157.467 12.678 157.182 12.7277 156.896 12.7741C156.611 12.8139 156.351 12.8503 156.119 12.8834C155.621 12.9563 155.186 13.0723 154.814 13.2313C154.442 13.3904 154.153 13.6058 153.947 13.8775C153.741 14.1425 153.638 14.4739 153.638 14.8715C153.638 15.448 153.847 15.8887 154.266 16.1935C154.691 16.4917 155.229 16.6408 155.88 16.6408Z" fill="#363636"/>
<path d="M166.576 19.275V7.97704C166.576 7.13595 167.354 6.51051 168.176 6.69109L169.787 7.04529C170.391 7.17802 170.821 7.713 170.821 8.33124V19.275H166.576ZM168.708 4.83791C168.077 4.83791 167.536 4.62916 167.084 4.21168C166.639 3.78757 166.417 3.28062 166.417 2.69084C166.417 2.10768 166.639 1.60737 167.084 1.18988C167.536 0.765767 168.077 0.553711 168.708 0.553711C169.34 0.553711 169.878 0.765767 170.323 1.18988C170.774 1.60737 171 2.10768 171 2.69084C171 3.28062 170.774 3.78757 170.323 4.21168C169.878 4.62916 169.34 4.83791 168.708 4.83791Z" fill="#363636"/>
<path d="M23.8395 19.419C22.6715 19.419 21.7247 18.4669 21.7247 17.2923V2.77402C21.7247 1.41439 22.976 0.403942 24.296 0.697503C25.2646 0.912898 25.9542 1.77642 25.9542 2.77403V17.2923C25.9542 18.4669 25.0074 19.419 23.8395 19.419Z" fill="#6922EC"/>
<path d="M18.702 11.6569C18.702 10.7426 18.1196 9.93121 17.2567 9.64338C15.8883 9.18693 14.478 10.2147 14.4832 11.6645L14.5322 17.1307V17.4989C14.5322 18.6569 15.4656 19.5956 16.6171 19.5956C17.7686 19.5956 18.702 18.6569 18.702 17.4989V11.6569Z" fill="#6922EC"/>
<path d="M7.24157 15.4423C7.24157 14.528 7.82402 13.7166 8.68692 13.4287C10.0553 12.9723 11.4657 14 11.4605 15.4499L11.4114 16.9661V17.3343C11.4114 18.4923 10.478 19.431 9.32651 19.431C8.17503 19.431 7.24157 18.4923 7.24157 17.3343V15.4423Z" fill="#6922EC"/>
<path d="M2.11472 19.6327C0.946793 19.6327 0 18.6806 0 17.506V16.722C0 15.7482 0.669646 14.9039 1.61368 14.6874C2.89655 14.3931 4.20389 15.399 4.22944 16.722V16.3566V17.506C4.22944 18.6806 3.28265 19.6327 2.11472 19.6327Z" fill="#6922EC"/>
</svg>
