<svg width="58" height="50" viewBox="0 0 58 50" fill="none" xmlns="http://www.w3.org/2000/svg">
<path d="M47.9867 31.9878C44.8062 31.9878 42.2039 29.3855 42.2039 26.205C42.2039 25.3857 41.5774 24.7593 40.7582 24.7593C39.939 24.7593 39.3125 25.3857 39.3125 26.205C39.3125 30.9758 43.2159 34.8792 47.9867 34.8792C48.8059 34.8792 49.4324 34.2527 49.4324 33.4335C49.4324 32.6142 48.8059 31.9878 47.9867 31.9878Z" fill="white"/>
<path d="M54.4931 19.6991C54.8304 18.8799 55.0232 17.9643 55.0232 17.0487C55.0232 13.8199 52.7582 11.1213 49.7223 10.4466C49.7223 10.3984 49.7223 10.3502 49.7223 10.3021C49.7223 6.97695 47.12 4.27831 43.8431 4.03736C43.7949 4.03736 43.6985 4.03736 43.6503 4.03736C43.6022 4.03736 43.6022 4.03736 43.554 4.03736C43.5058 4.03736 43.5058 4.03736 43.4576 4.03736C42.8311 4.03736 42.2046 4.13374 41.6264 4.3265C40.7589 2.20614 38.6868 0.664062 36.2291 0.664062C33.0485 0.664062 30.4463 3.26632 30.4463 6.44686V40.6617C30.4463 45.4325 34.3497 49.3359 39.1205 49.3359C42.4456 49.3359 45.4334 47.4083 46.8791 44.5169C51.4089 44.2278 55.0232 40.469 55.0232 35.8427C55.0232 34.7826 54.8304 33.7224 54.4449 32.7586C56.3243 31.1201 57.4327 28.7588 57.4327 26.2047C57.4327 23.6989 56.3725 21.3376 54.4931 19.6991ZM51.8426 31.0719C51.2162 31.5056 50.9752 32.3249 51.3607 32.9995C51.8426 33.867 52.1318 34.8308 52.1318 35.8427C52.1318 39.0233 49.5295 41.6255 46.349 41.6255C46.3008 41.6255 46.2044 41.6255 46.1562 41.6255H46.0117C45.3852 41.5774 44.7587 41.9629 44.566 42.5893C43.7467 44.9025 41.5782 46.4445 39.1205 46.4445C35.9399 46.4445 33.3377 43.8423 33.3377 40.6617V6.44686C33.3377 4.85659 34.6388 3.55546 36.2291 3.55546C37.6748 3.55546 38.8795 4.61564 39.0723 6.01315C38.0121 7.12152 37.3856 8.61541 37.3856 10.3021C37.3856 11.1213 38.0121 11.7478 38.8313 11.7478C39.6506 11.7478 40.277 11.1213 40.277 10.3021C40.277 8.47084 41.7227 6.97695 43.554 6.92876C45.3852 6.97695 46.8309 8.47084 46.8309 10.3021C46.8309 10.6394 46.7827 10.9767 46.6863 11.314C46.5417 11.7478 46.6381 12.2778 46.9273 12.6152C47.2164 13.0007 47.6501 13.1935 48.132 13.1935H48.2766C50.3969 13.1935 52.1318 14.9283 52.1318 17.0487C52.1318 17.6269 51.9872 18.157 51.7944 18.6389H50.2042C49.3849 18.6389 48.7585 19.2654 48.7585 20.0846C48.7585 20.9039 49.3849 21.5303 50.2042 21.5303H52.1318C53.6257 22.6387 54.5413 24.3253 54.5413 26.2047C54.5413 28.1805 53.5293 30.0118 51.8426 31.0719Z" fill="white"/>
<path d="M11.122 44.5169C12.5677 47.4565 15.5554 49.3359 18.8806 49.3359C23.6514 49.3359 27.5547 45.4325 27.5547 40.6617V6.44686C27.5547 3.26632 24.9525 0.664062 21.7719 0.664062C19.3143 0.664062 17.2421 2.15795 16.3747 4.3265C15.7964 4.13374 15.1699 4.03736 14.5435 4.03736C11.0738 4.03736 8.27876 6.83238 8.27876 10.3021C8.27876 10.3021 8.27876 10.3021 8.27876 10.3502C5.24279 11.0249 2.92967 13.7235 2.92967 16.9523C2.92967 17.9161 3.12243 18.8317 3.50795 19.6991C1.67673 21.3376 0.568359 23.6989 0.568359 26.2047C0.568359 28.5179 1.48397 30.6382 2.97786 32.1803V35.8427C2.97786 40.469 6.59211 44.2278 11.122 44.5169ZM5.86926 21.5785H7.79686C8.61609 21.5785 9.24255 20.952 9.24255 20.1328C9.24255 19.3136 8.61609 18.6871 7.79686 18.6871H6.25478C5.96564 18.157 5.82107 17.5787 5.82107 16.9523C5.82107 15.0729 7.17039 13.5308 8.95341 13.1453C10.0136 15.1692 12.0858 16.5668 14.5435 16.5668C15.3627 16.5668 15.9892 15.9403 15.9892 15.1211C15.9892 14.3018 15.3627 13.6754 14.5435 13.6754C13.0496 13.6754 11.7484 12.6634 11.3147 11.314C11.2665 11.1695 11.2183 11.0249 11.2183 10.8803C11.2183 10.8321 11.2183 10.8321 11.2183 10.784C11.2183 10.6394 11.1702 10.4948 11.1702 10.3021C11.1702 8.42265 12.664 6.92876 14.5435 6.92876C15.2663 6.92876 15.9892 7.16971 16.5674 7.60342C17.0011 7.94075 17.5794 7.98894 18.0613 7.74799C18.5432 7.50704 18.8806 7.02514 18.8806 6.44686C18.8806 6.44686 18.8806 6.44686 18.8806 6.39867C18.8806 4.8084 20.1817 3.55546 21.7719 3.55546C23.3622 3.55546 24.6633 4.85659 24.6633 6.44686V40.6617C24.6633 43.8423 22.0611 46.4445 18.8806 46.4445C16.4229 46.4445 14.2543 44.9025 13.4351 42.5893C13.2423 41.9629 12.664 41.5774 11.9894 41.6255H11.8448C11.7966 41.6255 11.7002 41.6255 11.6521 41.6255C8.47152 41.6255 5.86926 39.0233 5.86926 35.8427V34.2043C6.92944 34.638 8.03781 34.8789 9.24255 34.8789C14.0134 34.8789 17.9167 30.9756 17.9167 26.2047V23.7952C17.9167 22.976 17.2903 22.3496 16.4711 22.3496C15.6518 22.3496 15.0254 22.976 15.0254 23.7952V26.2047C15.0254 29.3853 12.4231 31.9875 9.24255 31.9875C6.06202 31.9875 3.45976 29.3853 3.45976 26.2047C3.45976 24.3735 4.37537 22.6387 5.86926 21.5785Z" fill="white"/>
</svg>
