<svg width="153" height="13" viewBox="0 0 153 13" fill="none" xmlns="http://www.w3.org/2000/svg">
<line y1="-0.5" x2="14.5607" y2="-0.5" transform="matrix(-0.606512 0.795075 0.864047 0.503412 10.2656 1.27051)" stroke="#3F3F46"/>
<line y1="-0.5" x2="14.5607" y2="-0.5" transform="matrix(-0.606512 0.795075 0.864047 0.503412 41.175 1.27051)" stroke="#3F3F46"/>
<line y1="-0.5" x2="14.5607" y2="-0.5" transform="matrix(-0.606512 0.795075 0.864047 0.503412 72.0845 1.27051)" stroke="#3F3F46"/>
<line y1="-0.5" x2="14.5607" y2="-0.5" transform="matrix(-0.606512 0.795075 0.864047 0.503412 102.994 1.27051)" stroke="#3F3F46"/>
<line y1="-0.5" x2="14.5607" y2="-0.5" transform="matrix(-0.606512 0.795075 0.864047 0.503412 133.903 1.27051)" stroke="#3F3F46"/>
<line y1="-0.5" x2="14.5607" y2="-0.5" transform="matrix(-0.606512 0.795075 0.864047 0.503412 16.4473 1.27051)" stroke="#3F3F46"/>
<line y1="-0.5" x2="14.5607" y2="-0.5" transform="matrix(-0.606512 0.795075 0.864047 0.503412 47.3569 1.27051)" stroke="#3F3F46"/>
<line y1="-0.5" x2="14.5607" y2="-0.5" transform="matrix(-0.606512 0.795075 0.864047 0.503412 78.2664 1.27051)" stroke="#3F3F46"/>
<line y1="-0.5" x2="14.5607" y2="-0.5" transform="matrix(-0.606512 0.795075 0.864047 0.503412 109.176 1.27051)" stroke="#3F3F46"/>
<line y1="-0.5" x2="14.5607" y2="-0.5" transform="matrix(-0.606512 0.795075 0.864047 0.503412 140.085 1.27051)" stroke="#3F3F46"/>
<line y1="-0.5" x2="14.5607" y2="-0.5" transform="matrix(-0.606512 0.795075 0.864047 0.503412 22.6294 1.27051)" stroke="#3F3F46"/>
<line y1="-0.5" x2="14.5607" y2="-0.5" transform="matrix(-0.606512 0.795075 0.864047 0.503412 53.5388 1.27051)" stroke="#3F3F46"/>
<line y1="-0.5" x2="14.5607" y2="-0.5" transform="matrix(-0.606512 0.795075 0.864047 0.503412 84.448 1.27051)" stroke="#3F3F46"/>
<line y1="-0.5" x2="14.5607" y2="-0.5" transform="matrix(-0.606512 0.795075 0.864047 0.503412 115.358 1.27051)" stroke="#3F3F46"/>
<line y1="-0.5" x2="14.5607" y2="-0.5" transform="matrix(-0.606512 0.795075 0.864047 0.503412 146.267 1.27051)" stroke="#3F3F46"/>
<line y1="-0.5" x2="14.5607" y2="-0.5" transform="matrix(-0.606512 0.795075 0.864047 0.503412 28.8113 1.27051)" stroke="#3F3F46"/>
<line y1="-0.5" x2="14.5607" y2="-0.5" transform="matrix(-0.606512 0.795075 0.864047 0.503412 59.7205 1.27051)" stroke="#3F3F46"/>
<line y1="-0.5" x2="14.5607" y2="-0.5" transform="matrix(-0.606512 0.795075 0.864047 0.503412 90.6301 1.27051)" stroke="#3F3F46"/>
<line y1="-0.5" x2="14.5607" y2="-0.5" transform="matrix(-0.606512 0.795075 0.864047 0.503412 121.539 1.27051)" stroke="#3F3F46"/>
<line y1="-0.5" x2="14.5607" y2="-0.5" transform="matrix(-0.606512 0.795075 0.864047 0.503412 152.449 1.27051)" stroke="#3F3F46"/>
<line y1="-0.5" x2="14.5607" y2="-0.5" transform="matrix(-0.606512 0.795075 0.864047 0.503412 34.9932 1.27051)" stroke="#3F3F46"/>
<line y1="-0.5" x2="14.5607" y2="-0.5" transform="matrix(-0.606512 0.795075 0.864047 0.503412 65.9023 1.27051)" stroke="#3F3F46"/>
<line y1="-0.5" x2="14.5607" y2="-0.5" transform="matrix(-0.606512 0.795075 0.864047 0.503412 96.8118 1.27051)" stroke="#3F3F46"/>
<line y1="-0.5" x2="14.5607" y2="-0.5" transform="matrix(-0.606512 0.795075 0.864047 0.503412 127.721 1.27051)" stroke="#3F3F46"/>
</svg>
