<svg width="53" height="52" viewBox="0 0 53 52" fill="none" xmlns="http://www.w3.org/2000/svg">
<path d="M3.45354 48.2857V48.7857H3.95354H50.3821C51.1324 48.7857 51.7393 49.3926 51.7393 50.1429C51.7393 50.8932 51.1324 51.5 50.3821 51.5H2.0964C1.3461 51.5 0.739258 50.8932 0.739258 50.1429V1.85714C0.739258 1.10684 1.3461 0.5 2.0964 0.5C2.8467 0.5 3.45354 1.10684 3.45354 1.85714V48.2857Z" fill="white" stroke="white"/>
<path d="M3.95136 50.1426C3.55412 50.1426 3.15149 50.0156 2.81237 49.751C2.00359 49.1216 1.85669 47.9555 2.48774 47.1448L15.4877 30.4305C16.0971 29.6452 17.2216 29.4802 18.0322 30.0606L29.6412 38.3507L48.9635 15.5155C49.6272 14.7319 50.797 14.6359 51.5806 15.2959C52.3641 15.9597 52.462 17.1314 51.8001 17.913L31.3715 42.0559C30.7477 42.7958 29.6631 42.9319 28.8742 42.3679L17.325 34.1196L5.41869 49.4265C5.05227 49.896 4.5046 50.1426 3.95136 50.1426Z" fill="white"/>
</svg>
