<svg width="57" height="56" viewBox="0 0 57 56" fill="none" xmlns="http://www.w3.org/2000/svg">
<path d="M29.3526 0.93335C23.8233 0.933339 19.3046 5.44064 19.3046 10.9635C19.3046 16.4865 23.8233 20.9933 29.3526 20.9933C34.7756 20.9933 39.1995 16.651 39.3687 11.2739C39.3897 11.1718 39.4002 11.0678 39.4001 10.9635C39.4 10.8604 39.3895 10.7576 39.3687 10.6565C39.2012 5.27794 34.7767 0.933356 29.3526 0.93335ZM29.3526 4.00549C33.2252 4.00549 36.328 7.10447 36.328 10.9635C36.328 14.8226 33.2252 17.9212 29.3526 17.9212C25.4801 17.9212 22.3767 14.8226 22.3767 10.9635C22.3767 7.10446 25.4801 4.00548 29.3526 4.00549ZM29.2171 26.5609C23.0922 26.6012 18.2668 29.3636 15.0707 33.2768C11.8746 37.1899 10.2251 42.2084 10.0952 47.0042C10.0947 47.0182 10.0944 47.0322 10.0943 47.0462C10.0943 48.0081 10.0375 49.8479 11.1301 51.5543C12.2226 53.2607 14.4806 54.4987 17.9752 54.4987H29.2271H40.4789C43.9735 54.4987 46.2315 53.2607 47.324 51.5543C48.4165 49.8479 48.3599 48.0081 48.3599 47.0462C48.3599 47.0322 48.3597 47.0182 48.3594 47.0042C48.2295 42.2084 46.5796 37.1899 43.3835 33.2768C40.1874 29.3636 35.362 26.6012 29.2371 26.5609C29.2304 26.5609 29.2238 26.5609 29.2171 26.5609ZM29.2271 29.6335C34.4543 29.6708 38.3036 31.9139 41.0042 35.2204C43.7027 38.5243 45.1701 42.9347 45.2858 47.0697C45.2849 48.0264 45.2268 49.1324 44.737 49.8974C44.2433 50.6685 43.3289 51.4267 40.4789 51.4267H29.2271H17.9752C15.1251 51.4267 14.2108 50.6685 13.7172 49.8974C13.2274 49.1324 13.1692 48.0264 13.1683 47.0697C13.2841 42.9347 14.752 38.5243 17.4506 35.2204C20.1511 31.9139 23.9999 29.6708 29.2271 29.6335Z" fill="white" stroke="white" stroke-width="0.7"/>
</svg>
