<svg width="59" height="58" viewBox="0 0 59 58" fill="none" xmlns="http://www.w3.org/2000/svg">
<path d="M29.1903 28.6995V29.0495H29.5403H51.3932C52.5173 29.0495 53.368 29.9002 53.368 31.0242V31.2567C53.368 45.787 41.5134 57.6417 26.983 57.6417C12.4527 57.6417 0.598047 45.787 0.598047 31.2567C0.598047 16.7264 12.4527 4.87173 26.983 4.87173H27.2155C28.3396 4.87173 29.1903 5.72243 29.1903 6.84651V28.6995ZM25.2407 9.24879V8.86311L24.8569 8.90043C13.5216 10.0025 4.54761 19.6046 4.54761 31.2567C4.54761 43.6164 14.6234 53.6921 26.983 53.6921C38.6342 53.6921 48.2373 44.7966 49.3394 33.3827L49.3764 32.999H48.991H27.2155C26.0914 32.999 25.2407 32.1483 25.2407 31.0242V9.24879Z" fill="white" stroke="#18181B" stroke-width="0.7"/>
<path d="M35.2357 0.375189L35.255 0.377329H35.2744H35.4813C46.9405 2.06946 56.1073 11.2434 57.7885 22.706L57.791 22.7232L57.7952 22.7401L57.8668 23.0266C57.9288 23.6262 57.7951 24.1357 57.4127 24.587C57.003 24.9925 56.4722 25.2499 55.8875 25.2499H34.9644C33.8404 25.2499 32.9896 24.3992 32.9896 23.2751V2.35211C32.9896 1.73874 33.1902 1.22304 33.6424 0.835518C34.1019 0.441632 34.6218 0.306967 35.2357 0.375189ZM37.3781 4.80333L36.9392 4.68806V5.14185V20.9504V21.3004H37.2892H53.0977H53.5515L53.4363 20.8615C51.3894 13.0675 45.172 6.85022 37.3781 4.80333Z" fill="white" stroke="#18181B" stroke-width="0.7"/>
</svg>
