<svg width="51" height="50" viewBox="0 0 51 50" fill="none" xmlns="http://www.w3.org/2000/svg">
<path d="M17.9311 41.5415L17.9312 41.5413C18.5753 39.2756 17.9699 36.9395 16.3115 35.2808C14.6526 33.6247 12.3205 33.0178 10.0504 33.6621C7.81679 34.2961 6.17315 36.011 5.64302 38.2536L17.9311 41.5415ZM17.9311 41.5415C17.297 43.7752 15.5822 45.4189 13.3397 45.949C8.93974 46.9878 5.549 46.9998 5.42762 46.9998C4.96718 46.9998 4.59375 46.6264 4.59375 46.1659C4.59375 46.0443 4.60424 42.6536 5.64299 38.2538L17.9311 41.5415ZM6.28643 45.3055L6.328 44.7293C6.42572 43.3747 6.66888 41.1702 7.26632 38.6362L6.28643 45.3055ZM6.28643 45.3055L6.86264 45.264M6.28643 45.3055L6.86264 45.264M6.86264 45.264C8.21873 45.1663 10.4218 44.9231 12.9557 44.3256M6.86264 45.264L12.9557 44.3256M12.9557 44.3256C14.6003 43.9381 15.8622 42.722 16.3261 41.0854M12.9557 44.3256L16.3261 41.0854M16.3261 41.0854C16.8007 39.4182 16.3544 37.6844 15.1301 36.4616C15.13 36.4615 15.1299 36.4615 15.1299 36.4614L14.7766 36.8152L16.3261 41.0854ZM10.506 35.2658C8.86968 35.7298 7.65378 36.9917 7.26634 38.6361L10.506 35.2658Z" fill="white" stroke="white"/>
<path d="M48.141 5.98885C48.0047 4.65494 46.9376 3.58782 45.6037 3.45147C41.7547 3.06167 30.697 3.03647 21.0901 13.3846L13.8857 13.3787C13.8857 13.3787 13.8813 13.3787 13.8783 13.3787C12.3222 13.3787 10.8001 14.0101 9.69888 15.1098L5.91662 18.8921C5.2734 19.5354 4.97994 20.4202 5.10889 21.3184C5.23783 22.2165 5.76693 22.9828 6.56132 23.42L13.5538 27.2676L24.3225 38.0366L28.17 45.0292C28.6072 45.8251 29.3749 46.3557 30.2731 46.4817C30.4124 46.5025 30.5502 46.5128 30.6851 46.5128C31.438 46.5128 32.1538 46.2179 32.6978 45.6754L36.4711 41.902C37.5886 40.7845 38.2037 39.2994 38.2037 37.7209L38.2052 30.503C48.5575 20.9004 48.5338 9.84383 48.141 5.98885ZM7.74847 20.9419C7.74106 20.8782 7.75884 20.8219 7.80479 20.7774L11.587 16.9965C12.1903 16.3933 13.0261 16.0465 13.8813 16.0465H13.8843L18.8389 16.0509C17.0441 18.3734 15.3308 21.1123 13.7568 24.3345L7.84925 21.0827C7.79145 21.0516 7.75884 21.0042 7.74847 20.9419ZM45.3354 6.10593C45.4155 6.11334 45.4792 6.17856 45.4881 6.26007C45.9461 10.7538 45.8393 26.0078 25.7009 35.64L15.9547 25.8937C25.5868 5.75319 40.8329 5.64351 45.3354 6.10593ZM35.5374 37.7224C35.5374 38.5894 35.1995 39.4046 34.5859 40.0167L30.8126 43.7902C30.7696 43.8346 30.7133 43.8569 30.651 43.845C30.5873 43.8346 30.5399 43.802 30.5072 43.7472L27.2571 37.8395C30.4791 36.267 33.2165 34.5536 35.5374 32.7603V37.7224Z" fill="white"/>
<path d="M33.2621 23.7815C34.7175 23.7815 36.0885 23.2153 37.12 22.1853C39.2453 20.0584 39.2453 16.5992 37.12 14.4724C35.0584 12.4122 31.4688 12.4122 29.4073 14.4724C28.3787 15.5024 27.8096 16.8719 27.8096 18.3288C27.8096 19.7857 28.3787 21.1552 29.4073 22.1853C30.4373 23.2153 31.8067 23.7815 33.2621 23.7815ZM31.2939 16.3591C31.8186 15.8329 32.5181 15.5439 33.2621 15.5439C34.0061 15.5439 34.7072 15.8329 35.2318 16.3591C36.3167 17.4455 36.3167 19.2122 35.2318 20.2985C34.181 21.3508 32.3447 21.3508 31.2939 20.2985C30.7678 19.7724 30.4773 19.0728 30.4773 18.3288C30.4773 17.5848 30.7678 16.8867 31.2939 16.3591Z" fill="white"/>
</svg>
