<svg width="52" height="52" viewBox="0 0 52 52" fill="none" xmlns="http://www.w3.org/2000/svg">
<path d="M0.349147 28.9109L2.5534 35.6948C2.99594 37.0475 3.82727 38.2372 4.94186 39.1127C6.05644 39.9883 7.404 40.5103 8.81346 40.6124L12.1816 50.9809C12.2791 51.2773 12.4667 51.5353 12.7178 51.7182C12.9689 51.9011 13.2707 51.9997 13.5805 52C13.7346 52.0004 13.8877 51.9744 14.0331 51.923L19.6231 50.0803C19.8064 50.021 19.9761 49.9254 20.1225 49.7993C20.2688 49.6732 20.3888 49.519 20.4754 49.3457C20.6528 48.9955 20.6866 48.5891 20.5695 48.214L19.2528 44.1614C20.4512 43.6232 21.4738 42.7538 22.202 41.6538C22.9302 40.5538 23.3343 39.2683 23.3674 37.9463L50.4356 36.7613C50.6608 36.7446 50.8793 36.6761 51.0741 36.5609C51.2689 36.4458 51.4349 36.287 51.5593 36.097C51.6837 35.9069 51.7631 35.6907 51.7915 35.4648C51.8198 35.2389 51.7963 35.0095 51.7228 34.7942L47.8551 22.832L48.2078 22.7135C49.596 22.2546 50.7466 21.2587 51.4063 19.9448C52.0661 18.6309 52.181 17.1066 51.7258 15.7073C51.2706 14.308 50.2825 13.1483 48.979 12.4833C47.6755 11.8183 46.1633 11.7025 44.775 12.1613L44.4282 12.2739L40.7663 1.01668C40.6967 0.802737 40.5795 0.607681 40.4236 0.446447C40.2677 0.285213 40.0773 0.162079 39.8669 0.0864746C39.6556 0.0108091 39.43 -0.0157034 39.2071 0.00892117C38.9842 0.0335457 38.7697 0.10867 38.5796 0.228671L11.2293 17.7781L4.89872 19.8636C3.10746 20.4585 1.62301 21.7446 0.770331 23.4402C-0.0823496 25.1358 -0.233795 27.1029 0.349147 28.9109ZM14.4916 48.6525L11.7525 40.2155L14.5445 39.2912L16.0081 43.7704L17.2895 47.7104L14.4916 48.6525ZM18.2947 41.3116L17.3366 38.3491L17.8421 38.1833L20.3931 38.0648C20.3423 38.7401 20.1234 39.3917 19.7566 39.9592C19.3898 40.5267 18.887 40.9918 18.2947 41.3116ZM45.692 14.9756C46.0125 14.867 46.3513 14.8241 46.6885 14.8496C47.0257 14.875 47.3544 14.9682 47.6553 15.1237C47.9565 15.2776 48.2247 15.4898 48.4445 15.7482C48.6643 16.0066 48.8314 16.3062 48.9363 16.6298C49.0411 16.9533 49.0816 17.2946 49.0554 17.6339C49.0293 17.9733 48.937 18.3042 48.7838 18.6075C48.633 18.9123 48.4232 19.1836 48.1668 19.4054C47.9104 19.6272 47.6126 19.7951 47.2908 19.8992L46.944 20.0177L45.3393 15.0882L45.692 14.9756ZM48.3489 33.864L18.6297 35.1912L13.6158 19.7866L38.562 3.7895L48.3489 33.864ZM5.81568 22.6779L10.9237 20.9953L15.726 35.8074L15.0265 36.0325L10.6062 37.496C10.0833 37.67 9.53146 37.7382 8.9823 37.6969C8.43315 37.6555 7.89749 37.5053 7.40604 37.2549C6.91458 37.0044 6.47699 36.6587 6.11835 36.2374C5.75971 35.8162 5.48707 35.3278 5.31605 34.8002L3.14707 27.9925C2.80357 26.931 2.89158 25.7756 3.3918 24.7794C3.89202 23.7831 4.76366 23.0275 5.81568 22.6779Z" fill="white"/>
</svg>
