<svg width="53" height="52" viewBox="0 0 53 52" fill="none" xmlns="http://www.w3.org/2000/svg">
<g id="Group">
<path id="Vector" d="M3.4533 48.2857V48.7857H3.9533H50.3819C51.1322 48.7857 51.739 49.3926 51.739 50.1429C51.739 50.8932 51.1322 51.5 50.3819 51.5H2.09616C1.34586 51.5 0.739014 50.8932 0.739014 50.1429V1.85714C0.739014 1.10684 1.34586 0.5 2.09616 0.5C2.84646 0.5 3.4533 1.10684 3.4533 1.85714V48.2857Z" fill="white" stroke="white"/>
<path id="Vector_2" d="M3.95142 50.1426C3.55418 50.1426 3.15155 50.0156 2.81243 49.751C2.00365 49.1216 1.85675 47.9555 2.4878 47.1448L15.4878 30.4305C16.0971 29.6452 17.2216 29.4802 18.0323 30.0606L29.6413 38.3507L48.9635 15.5155C49.6273 14.7319 50.7971 14.6359 51.5806 15.2959C52.3642 15.9597 52.462 17.1314 51.8001 17.913L31.3716 42.0559C30.7478 42.7958 29.6632 42.9319 28.8743 42.3679L17.3251 34.1196L5.41875 49.4265C5.05233 49.896 4.50466 50.1426 3.95142 50.1426Z" fill="white"/>
</g>
</svg>
