<svg width="45" height="45" viewBox="0 0 45 45" fill="none" xmlns="http://www.w3.org/2000/svg">
<g id="Group">
<path id="Vector" d="M13.9317 38.5415L13.9317 38.5413C14.5759 36.2756 13.9705 33.9395 12.312 32.2808C10.6531 30.6247 8.32108 30.0178 6.05096 30.6621C3.81734 31.2961 2.1737 33.011 1.64357 35.2536L13.9317 38.5415ZM13.9317 38.5415C13.2976 40.7752 11.5827 42.4189 9.34021 42.949C4.94029 43.9878 1.54955 43.9998 1.42817 43.9998C0.967731 43.9998 0.594299 43.6264 0.594299 43.1659C0.594299 43.0443 0.604792 39.6536 1.64354 35.2538L13.9317 38.5415ZM2.28698 42.3055L2.32855 41.7293C2.42626 40.3747 2.66943 38.1702 3.26687 35.6362L2.28698 42.3055ZM2.28698 42.3055L2.86319 42.264M2.28698 42.3055L2.86319 42.264M2.86319 42.264C4.21927 42.1663 6.42235 41.9231 8.95627 41.3256M2.86319 42.264L8.95627 41.3256M8.95627 41.3256C10.6008 40.9381 11.8628 39.722 12.3267 38.0854M8.95627 41.3256L12.3267 38.0854M12.3267 38.0854C12.8012 36.4182 12.3549 34.6844 11.1306 33.4616C11.1305 33.4615 11.1305 33.4615 11.1304 33.4614L10.7771 33.8152L12.3267 38.0854ZM6.50651 32.2658C4.87023 32.7298 3.65433 33.9917 3.26689 35.6361L6.50651 32.2658Z" fill="white" stroke="white"/>
<path id="Vector_2" d="M44.1417 2.98885C44.0053 1.65494 42.9382 0.58782 41.6044 0.451465C37.7554 0.0616691 26.6976 0.0364731 17.0908 10.3846L9.88642 10.3787C9.88642 10.3787 9.88197 10.3787 9.87901 10.3787C8.32283 10.3787 6.80073 11.0101 5.69955 12.1098L1.91729 15.8921C1.27407 16.5354 0.980616 17.4202 1.10956 18.3184C1.2385 19.2165 1.7676 19.9828 2.56199 20.42L9.55443 24.2676L20.3232 35.0366L24.1707 42.0292C24.6079 42.8251 25.3756 43.3557 26.2738 43.4817C26.4131 43.5025 26.5509 43.5128 26.6858 43.5128C27.4387 43.5128 28.1545 43.2179 28.6984 42.6754L32.4718 38.902C33.5893 37.7845 34.2043 36.2994 34.2043 34.7209L34.2058 27.503C44.5581 17.9004 44.5344 6.84383 44.1417 2.98885ZM3.74914 17.9419C3.74173 17.8782 3.75951 17.8219 3.80546 17.7774L7.58772 13.9965C8.19092 13.3933 9.02682 13.0465 9.88197 13.0465H9.88494L14.8395 13.0509C13.0447 15.3734 11.3314 18.1123 9.75748 21.3345L3.84992 18.0827C3.79212 18.0516 3.75951 18.0042 3.74914 17.9419ZM41.3361 3.10593C41.4161 3.11334 41.4799 3.17856 41.4888 3.26007C41.9467 7.75385 41.84 23.0078 21.7015 32.64L11.9554 22.8937C21.5874 2.75319 36.8336 2.64351 41.3361 3.10593ZM31.5381 34.7224C31.5381 35.5894 31.2002 36.4046 30.5866 37.0167L26.8132 40.7902C26.7702 40.8346 26.7139 40.8569 26.6517 40.845C26.588 40.8346 26.5405 40.802 26.5079 40.7472L23.2577 34.8395C26.4798 33.267 29.2172 31.5536 31.5381 29.7603V34.7224Z" fill="white"/>
<path id="Vector_3" d="M29.2631 20.7815C30.7185 20.7815 32.0894 20.2153 33.121 19.1853C35.2463 17.0584 35.2463 13.5992 33.121 11.4724C31.0594 9.41221 27.4698 9.41221 25.4082 11.4724C24.3797 12.5024 23.8105 13.8719 23.8105 15.3288C23.8105 16.7857 24.3797 18.1552 25.4082 19.1853C26.4383 20.2153 27.8077 20.7815 29.2631 20.7815ZM27.2949 13.3591C27.8196 12.8329 28.5191 12.5439 29.2631 12.5439C30.0071 12.5439 30.7081 12.8329 31.2328 13.3591C32.3177 14.4455 32.3177 16.2122 31.2328 17.2985C30.182 18.3508 28.3457 18.3508 27.2949 17.2985C26.7688 16.7724 26.4783 16.0728 26.4783 15.3288C26.4783 14.5848 26.7688 13.8867 27.2949 13.3591Z" fill="white"/>
</g>
</svg>
